# xmcd
#
# Track frame offsets:
#	150
#	43872
#	57780
#	71125
#	84382
#	102432
#	116715
#	128227
#	144695
#	163447
#	175015
#	185562
#	197732
#	221225
#	234992
#	250235
#	262790
#	274565
#	287285
#	298760
#	311310
#
# Disc length: 4339 seconds
#
# Revision: 4
# Processed by: cddbd v1.5.1PL0 Copyright (c) Steve Scherf et al.
# Submitted via: audiograbber 1.83.01
#
DISCID=4010f115
DTITLE=Various Artist - Boot Scootin' 12
DYEAR=1900
DGENRE=Country
TTITLE0=Isaac Peyton Sweat - Cotton-Eyed Joe/Schottische [12" Dance Version]
TTITLE1=George Strait - Round About Way
TTITLE2=Rick Trevino - Life Can Turn On A Dime
TTITLE3=Sawyer Brown - The Race Is On
TTITLE4=Clint Black and Martina McBride - Still Holding On [Martina McBride Mix]
TTITLE5=Ronnie McDowell - Smokey Places
TTITLE6=Larry Stewart - They Ain't Made Enough Road
TTITLE7=Steve Earle - Hillbilly Highway
TTITLE8=Mark Chesnutt - Texas Is Bigger Than It Used To Be
TTITLE9=George Strait - It's Too Late Now
TTITLE10=Rhett Akins - Every Cowboy's Dream [Single Version]
TTITLE11=Ernest Tubb - Waltz Across Texas
TTITLE12=Rodney Crowell - The Last Waltz
TTITLE13=Mickey Gilley - Don't All The Girls Get Prettier At Closing Time
TTITLE14=Collin Raye - Little Red Rodeo
TTITLE15=Jimmy Buffett - Why Don't We Get Drunk And Screw
TTITLE16=Isaac Peyton Sweat - Jole Blon
TTITLE17=Bobby Bare - Detroit City
TTITLE18=Waylon Jennings and Willie Nelson - Mammas Don't Let Your Babies Grow Up
TTITLE18=To Be Cowboys
TTITLE19=Merle Haggard - Okie From Muskogee
TTITLE20=George Strait - Where The Sidewalk Ends
EXTD=
EXTT0=
EXTT1=
EXTT2=
EXTT3=
EXTT4=
EXTT5=
EXTT6=
EXTT7=
EXTT8=
EXTT9=
EXTT10=
EXTT11=
EXTT12=
EXTT13=
EXTT14=
EXTT15=
EXTT16=
EXTT17=
EXTT18=
EXTT19=
EXTT20=
PLAYORDER=
